<?xml version="1.0" encoding="UTF-8"?>
<svg width="100px" height="100px" viewBox="0 0 100 100" version="1.1" xmlns="http://www.w3.org/2000/svg" xmlns:xlink="http://www.w3.org/1999/xlink">
    <!-- Generator: Sketch 47.1 (45422) - http://www.bohemiancoding.com/sketch -->
    <title>contact-form-honeypot</title>
    <desc>Created with Sketch.</desc>
    <defs></defs>
    <g id="Icons" stroke="none" stroke-width="1" fill="none" fill-rule="evenodd">
        <g id="contact-form-honeypot">
            <circle id="Oval" fill="#2FCEAA" cx="50" cy="50" r="50"></circle>
            <path d="M38.1015128,38.6782653 C38.1015128,34.0084691 40.7747255,29.9630351 44.6743559,27.9887585 C44.227125,26.4383987 43.1376532,25.1603323 41.7126405,24.4612593 C40.8219469,23.9962217 40.5889008,23.3644234 41.0135023,22.5658642 C41.4381037,21.7673051 42.0818711,21.626649 42.9448044,22.1438961 C44.9299781,23.1439613 46.4590449,24.9169271 47.1367773,27.0675662 C48.0770371,26.830323 49.0615418,26.7042964 50.0754816,26.7042964 C50.8414286,26.7042964 51.5905784,26.776214 52.3165467,26.913665 C53.0176332,24.8324272 54.5207352,23.1200045 56.4583538,22.1438961 C57.3212871,21.626649 57.9650545,21.7673051 58.3896559,22.5658642 C58.8142573,23.3644234 58.5812112,23.9962217 57.6905176,24.4612593 C56.3600827,25.113935 55.3221271,26.2712993 54.8262475,27.6837555 C59.075949,29.5225594 62.0494504,33.7531631 62.0494504,38.6782653 C62.0494504,39.521323 61.9623235,40.3440312 61.7965827,41.1378768 C67.5571338,43.0047425 71.4015905,44.9023566 73.3299528,46.8307189 C77.8716031,51.3723692 78.330106,58.2773363 74.3540477,62.2533946 C70.7444788,65.8629636 64.7210556,65.8177979 60.243331,62.3808195 C59.0946189,65.7916082 56.2591273,70.2223723 51.7368563,75.6731118 L51.7368563,80.4997261 C51.7368563,81.417278 50.9930335,82.1611008 50.0754816,82.1611008 C49.1579297,82.1611008 48.4141069,81.417278 48.4141069,80.4997261 L48.4141069,75.6731118 C43.8505526,70.1726131 41.0047152,65.7107973 39.8765945,62.2876644 C35.3870231,65.8166958 29.2878466,65.8952889 25.6459523,62.2533946 C21.669894,58.2773363 22.1283969,51.3723692 26.6700472,46.8307189 C28.6141569,44.8866091 32.5057834,42.9737519 38.3449265,41.0921472 C38.1853281,40.3124509 38.1015128,39.5051462 38.1015128,38.6782653 Z M50.6962517,73.6189033 C51.1507052,73.052305 51.5851359,72.4985134 51.9995438,71.9575286 L48.1514194,71.9575286 C48.5658273,72.4985134 49.0002579,73.052305 49.4547115,73.6189033 L50.6962523,73.6189033 L50.6962517,73.6189033 Z M54.0234276,69.1885707 C54.4187491,68.617775 54.7874853,68.0639834 55.1296362,67.527196 L45.021327,67.527196 C45.3634779,68.0639834 45.7322141,68.617775 46.1275356,69.1885707 L54.0234276,69.1885707 Z M56.7372487,64.7582382 C57.0362553,64.1791436 57.2957015,63.625352 57.5155874,63.0968634 L42.6353758,63.0968634 C42.8552617,63.625352 43.1147079,64.1791436 43.4137145,64.7582382 L56.7372487,64.7582382 Z M41.8601952,60.3279056 L58.1360497,60.3279056 C57.7600309,59.8476085 57.3851915,59.293817 57.0115314,58.6665309 L42.9841862,58.6665309 C42.6107008,59.2937496 42.2360372,59.8475412 41.8601952,60.3279056 Z M44.4123639,55.897573 L55.5829561,55.897573 C55.3449904,55.3740767 55.107511,54.8202851 54.8705177,54.2361983 L45.1246648,54.2361983 C44.8877171,54.8202738 44.6502835,55.3740654 44.4123639,55.897573 L44.4123639,55.897573 Z M47.5811205,47.0369079 L52.4137466,47.0369079 C52.2551131,46.4970859 52.0967038,45.9432943 51.9385187,45.3755332 L48.0563054,45.3755332 C47.8981346,45.9432919 47.7397396,46.4970835 47.5811205,47.0369079 L47.5811205,47.0369079 Z M46.1653556,51.4672404 L53.8296697,51.4672404 C53.6425375,50.9325671 53.4557121,50.3787755 53.2691936,49.8058657 L46.7257629,49.8058657 C46.5392672,50.3787711 46.3524647,50.9325626 46.1653556,51.4672404 L46.1653556,51.4672404 Z M72.5647243,60.4640712 C75.6541393,57.3746561 75.1667847,51.87837 71.4761872,48.1877725 C69.0157889,45.7273742 62.8022868,43.243126 52.8356811,40.735028 C55.3437791,50.7016338 57.8280273,56.9151358 60.2884256,59.3755342 C63.9790231,63.0661316 69.4753092,63.5534863 72.5647243,60.4640712 Z M27.4338808,60.4654661 C30.5237829,63.5553682 36.0209355,63.0679367 39.7121148,59.3767574 C42.172901,56.9159713 44.6575408,50.7014897 47.1660342,40.7333127 C37.1978573,43.2418061 30.9833757,45.7264459 28.5225895,48.1872321 C24.8314102,51.8784114 24.3439787,57.375564 27.4338808,60.4654661 Z" id="Bee" fill="#FFFFFF"></path>
        </g>
    </g>
</svg>